<svg width="47" height="48" viewBox="0 0 47 48" fill="none" xmlns="http://www.w3.org/2000/svg">
<path fill-rule="evenodd" clip-rule="evenodd" d="M25 15C28.88 15 32 18.14 32 22C32 24.8 30.37 27.19 28 28.31V33H21V30H20C18.89 30 18 29.11 18 28V25H16.5C16.08 25 15.84 24.5 16.08 24.19L18 21.66C18.0881 19.8633 18.8643 18.1694 20.1675 16.9294C21.4708 15.6895 23.2012 14.9986 25 15ZM27.37 21.81L29.33 21.3C29.82 21.18 30.1 20.68 29.97 20.21C29.84 19.72 29.35 19.44 28.87 19.57L26.9 20.1L27.43 18.13C27.56 17.65 27.28 17.16 26.79 17.03C26.32 16.9 25.82 17.18 25.7 17.67L25.19 19.63L23.73 18.19C23.5582 18.0396 23.3356 17.9601 23.1074 17.9676C22.8791 17.9752 22.6623 18.0692 22.5008 18.2307C22.3393 18.3922 22.2452 18.6091 22.2377 18.8373C22.2301 19.0656 22.3096 19.2882 22.46 19.46L23.9 20.91L21.94 21.43C21.46 21.55 21.18 22.05 21.3 22.5C21.3292 22.6164 21.3811 22.7259 21.4528 22.8222C21.5245 22.9185 21.6145 22.9997 21.7177 23.061C21.8209 23.1224 21.9351 23.1627 22.054 23.1797C22.1728 23.1967 22.2938 23.19 22.41 23.16L24.37 22.63L23.84 24.59C23.8101 24.7062 23.8034 24.8272 23.8204 24.9461C23.8373 25.0649 23.8777 25.1792 23.939 25.2824C24.0004 25.3855 24.0815 25.4756 24.1778 25.5472C24.2741 25.6189 24.3836 25.6708 24.5 25.7C24.96 25.82 25.45 25.55 25.57 25.06L26.09 23.1L27.54 24.54C27.88 24.89 28.46 24.89 28.81 24.54C29.16 24.19 29.16 23.61 28.81 23.27L27.37 21.81Z" fill="#FA683B"/>
<g filter="url(#filter0_f)">
<path fill-rule="evenodd" clip-rule="evenodd" d="M25 15C28.88 15 32 18.14 32 22C32 24.8 30.37 27.19 28 28.31V33H21V30H20C18.89 30 18 29.11 18 28V25H16.5C16.08 25 15.84 24.5 16.08 24.19L18 21.66C18.0881 19.8633 18.8643 18.1694 20.1675 16.9294C21.4708 15.6895 23.2012 14.9986 25 15ZM27.37 21.81L29.33 21.3C29.82 21.18 30.1 20.68 29.97 20.21C29.84 19.72 29.35 19.44 28.87 19.57L26.9 20.1L27.43 18.13C27.56 17.65 27.28 17.16 26.79 17.03C26.32 16.9 25.82 17.18 25.7 17.67L25.19 19.63L23.73 18.19C23.5582 18.0396 23.3356 17.9601 23.1074 17.9676C22.8791 17.9752 22.6623 18.0692 22.5008 18.2307C22.3393 18.3922 22.2452 18.6091 22.2377 18.8373C22.2301 19.0656 22.3096 19.2882 22.46 19.46L23.9 20.91L21.94 21.43C21.46 21.55 21.18 22.05 21.3 22.5C21.3292 22.6164 21.3811 22.7259 21.4528 22.8222C21.5245 22.9185 21.6145 22.9997 21.7177 23.061C21.8209 23.1224 21.9351 23.1627 22.054 23.1797C22.1728 23.1967 22.2938 23.19 22.41 23.16L24.37 22.63L23.84 24.59C23.8101 24.7062 23.8034 24.8272 23.8204 24.9461C23.8373 25.0649 23.8777 25.1792 23.939 25.2824C24.0004 25.3855 24.0815 25.4756 24.1778 25.5472C24.2741 25.6189 24.3836 25.6708 24.5 25.7C24.96 25.82 25.45 25.55 25.57 25.06L26.09 23.1L27.54 24.54C27.88 24.89 28.46 24.89 28.81 24.54C29.16 24.19 29.16 23.61 28.81 23.27L27.37 21.81Z" fill="#FA683B"/>
</g>
<defs>
<filter id="filter0_f" x="-3" y="-3" width="54" height="54" filterUnits="userSpaceOnUse" color-interpolation-filters="sRGB">
<feFlood flood-opacity="0" result="BackgroundImageFix"/>
<feBlend mode="normal" in="SourceGraphic" in2="BackgroundImageFix" result="shape"/>
<feGaussianBlur stdDeviation="7.5" result="effect1_foregroundBlur"/>
</filter>
</defs>
</svg>
