<svg width="52" height="52" viewBox="0 0 52 52" fill="none" xmlns="http://www.w3.org/2000/svg">
<g filter="url(#filter0_f)">
<path fill-rule="evenodd" clip-rule="evenodd" d="M27.001 18.062L27 15H25V18.062C23.2376 18.2846 21.5993 19.0871 20.3432 20.3432C19.0871 21.5993 18.2846 23.2376 18.062 25H15V27L18.062 27.001C18.2848 28.7632 19.0874 30.4013 20.3435 31.6572C21.5996 32.9131 23.2378 33.7155 25 33.938V37H27L27.001 33.938C28.7631 33.7153 30.401 32.9128 31.6569 31.6569C32.9128 30.401 33.7153 28.7631 33.938 27.001L37 27V25H33.938C33.7155 23.2378 32.9131 21.5996 31.6572 20.3435C30.4013 19.0874 28.7632 18.2848 27.001 18.062ZM21.7574 21.7574C22.8826 20.6321 24.4087 20 26 20C27.5913 20 29.1174 20.6321 30.2426 21.7574C31.3679 22.8826 32 24.4087 32 26C32 27.5913 31.3679 29.1174 30.2426 30.2426C29.1174 31.3679 27.5913 32 26 32C24.4087 32 22.8826 31.3679 21.7574 30.2426C20.6321 29.1174 20 27.5913 20 26C20 24.4087 20.6321 22.8826 21.7574 21.7574Z" fill="#FA683B"/>
<path d="M26 24C26.5304 24 27.0391 24.2107 27.4142 24.5858C27.7893 24.9609 28 25.4696 28 26C28 26.5304 27.7893 27.0391 27.4142 27.4142C27.0391 27.7893 26.5304 28 26 28C25.4696 28 24.9609 27.7893 24.5858 27.4142C24.2107 27.0391 24 26.5304 24 26C24 25.4696 24.2107 24.9609 24.5858 24.5858C24.9609 24.2107 25.4696 24 26 24Z" fill="#FA683B"/>
<path d="M30 26C30 28.2091 28.2091 30 26 30C23.7909 30 22 28.2091 22 26C22 23.7909 23.7909 22 26 22C28.2091 22 30 23.7909 30 26Z" fill="#FA683B"/>
</g>
<path fill-rule="evenodd" clip-rule="evenodd" d="M27.001 18.062L27 15H25V18.062C23.2376 18.2846 21.5993 19.0871 20.3432 20.3432C19.0871 21.5993 18.2846 23.2376 18.062 25H15V27L18.062 27.001C18.2848 28.7632 19.0874 30.4013 20.3435 31.6572C21.5996 32.9131 23.2378 33.7155 25 33.938V37H27L27.001 33.938C28.7631 33.7153 30.401 32.9128 31.6569 31.6569C32.9128 30.401 33.7153 28.7631 33.938 27.001L37 27V25H33.938C33.7155 23.2378 32.9131 21.5996 31.6572 20.3435C30.4013 19.0874 28.7632 18.2848 27.001 18.062ZM21.7574 21.7574C22.8826 20.6321 24.4087 20 26 20C27.5913 20 29.1174 20.6321 30.2426 21.7574C31.3679 22.8826 32 24.4087 32 26C32 27.5913 31.3679 29.1174 30.2426 30.2426C29.1174 31.3679 27.5913 32 26 32C24.4087 32 22.8826 31.3679 21.7574 30.2426C20.6321 29.1174 20 27.5913 20 26C20 24.4087 20.6321 22.8826 21.7574 21.7574Z" fill="#FA683B"/>
<path d="M26 24C26.5304 24 27.0391 24.2107 27.4142 24.5858C27.7893 24.9609 28 25.4696 28 26C28 26.5304 27.7893 27.0391 27.4142 27.4142C27.0391 27.7893 26.5304 28 26 28C25.4696 28 24.9609 27.7893 24.5858 27.4142C24.2107 27.0391 24 26.5304 24 26C24 25.4696 24.2107 24.9609 24.5858 24.5858C24.9609 24.2107 25.4696 24 26 24Z" fill="#FA683B"/>
<path d="M30 26C30 28.2091 28.2091 30 26 30C23.7909 30 22 28.2091 22 26C22 23.7909 23.7909 22 26 22C28.2091 22 30 23.7909 30 26Z" fill="#FA683B"/>
<defs>
<filter id="filter0_f" x="-1" y="-1" width="54" height="54" filterUnits="userSpaceOnUse" color-interpolation-filters="sRGB">
<feFlood flood-opacity="0" result="BackgroundImageFix"/>
<feBlend mode="normal" in="SourceGraphic" in2="BackgroundImageFix" result="shape"/>
<feGaussianBlur stdDeviation="7.5" result="effect1_foregroundBlur"/>
</filter>
</defs>
</svg>
