<svg width="24" height="24" viewBox="0 0 24 24" fill="none" xmlns="http://www.w3.org/2000/svg">
<path fill-rule="evenodd" clip-rule="evenodd" d="M13 3C16.88 3 20 6.14 20 10C20 12.8 18.37 15.19 16 16.31V21H8.99998V18H7.99998C6.88998 18 5.99998 17.11 5.99998 16V13H4.49998C4.07998 13 3.83998 12.5 4.07998 12.19L5.99998 9.66C6.08809 7.86329 6.86421 6.16939 8.16745 4.92945C9.4707 3.6895 11.2011 2.99861 13 3ZM15.37 9.81L17.33 9.3C17.82 9.18 18.1 8.68 17.97 8.21C17.84 7.72 17.35 7.44 16.87 7.57L14.9 8.1L15.43 6.13C15.56 5.65 15.28 5.16 14.79 5.03C14.32 4.9 13.82 5.18 13.7 5.67L13.19 7.63L11.73 6.19C11.5582 6.03956 11.3356 5.96006 11.1073 5.96762C10.879 5.97519 10.6622 6.06925 10.5007 6.23073C10.3392 6.39222 10.2452 6.60907 10.2376 6.83732C10.23 7.06558 10.3095 7.28817 10.46 7.46L11.9 8.91L9.93998 9.43C9.45998 9.55 9.17998 10.05 9.29998 10.5C9.32915 10.6164 9.38107 10.7259 9.45275 10.8222C9.52443 10.9185 9.61444 10.9997 9.71762 11.061C9.82079 11.1224 9.93508 11.1627 10.0539 11.1797C10.1727 11.1967 10.2937 11.19 10.41 11.16L12.37 10.63L11.84 12.59C11.81 12.7062 11.8033 12.8272 11.8203 12.9461C11.8373 13.0649 11.8776 13.1792 11.939 13.2824C12.0003 13.3855 12.0815 13.4756 12.1777 13.5472C12.274 13.6189 12.3835 13.6708 12.5 13.7C12.96 13.82 13.45 13.55 13.57 13.06L14.09 11.1L15.54 12.54C15.88 12.89 16.46 12.89 16.81 12.54C17.16 12.19 17.16 11.61 16.81 11.27L15.37 9.81Z" fill="#FA683B"/>
</svg>
