<svg width="24" height="24" viewBox="0 0 24 24" fill="none" xmlns="http://www.w3.org/2000/svg">
<path d="M9.75 1.5H14.25V3H9.75V1.5Z" fill="#FA683B"/>
<path fill-rule="evenodd" clip-rule="evenodd" d="M19.935 5.69252L21 6.75002L19.1325 8.61752C20.1955 10.4404 20.5155 12.6027 20.0257 14.6553C19.536 16.7078 18.2743 18.4928 16.5028 19.6394C14.7312 20.7859 12.5861 21.2058 10.513 20.8119C8.43992 20.4179 6.5983 19.2404 5.3708 17.524C4.1433 15.8076 3.62429 13.6842 3.9216 11.5951C4.21891 9.50593 5.30969 7.61166 6.9673 6.30583C8.62491 5 10.7219 4.38301 12.8226 4.58305C14.9233 4.7831 16.8661 5.7848 18.2475 7.38002L19.935 5.69252ZM12.75 8.25H11.25V15H12.75V8.25Z" fill="#FA683B"/>
</svg>
