<svg width="24" height="24" viewBox="0 0 24 24" fill="none" xmlns="http://www.w3.org/2000/svg">
<path fill-rule="evenodd" clip-rule="evenodd" d="M13.001 4.062L13 1H11V4.062C9.23761 4.28459 7.59934 5.08713 6.34324 6.34324C5.08713 7.59934 4.28459 9.23761 4.062 11H1V13L4.062 13.001C4.28479 14.7632 5.08743 16.4013 6.34351 17.6572C7.5996 18.9131 9.23775 19.7155 11 19.938V23H13L13.001 19.938C14.7631 19.7153 16.401 18.9128 17.6569 17.6569C18.9128 16.401 19.7153 14.7631 19.938 13.001L23 13V11H19.938C19.7155 9.23775 18.9131 7.5996 17.6572 6.34351C16.4013 5.08743 14.7632 4.28479 13.001 4.062ZM7.75736 7.75736C8.88258 6.63214 10.4087 6 12 6C13.5913 6 15.1174 6.63214 16.2426 7.75736C17.3679 8.88258 18 10.4087 18 12C18 13.5913 17.3679 15.1174 16.2426 16.2426C15.1174 17.3679 13.5913 18 12 18C10.4087 18 8.88258 17.3679 7.75736 16.2426C6.63214 15.1174 6 13.5913 6 12C6 10.4087 6.63214 8.88258 7.75736 7.75736Z" fill="#FA683B"/>
<path d="M12 10C12.5304 10 13.0391 10.2107 13.4142 10.5858C13.7893 10.9609 14 11.4696 14 12C14 12.5304 13.7893 13.0391 13.4142 13.4142C13.0391 13.7893 12.5304 14 12 14C11.4696 14 10.9609 13.7893 10.5858 13.4142C10.2107 13.0391 10 12.5304 10 12C10 11.4696 10.2107 10.9609 10.5858 10.5858C10.9609 10.2107 11.4696 10 12 10Z" fill="#FA683B"/>
<path d="M16 12C16 14.2091 14.2091 16 12 16C9.79086 16 8 14.2091 8 12C8 9.79086 9.79086 8 12 8C14.2091 8 16 9.79086 16 12Z" fill="#FA683B"/>
</svg>
