<svg width="50" height="50" viewBox="0 0 50 50" fill="none" xmlns="http://www.w3.org/2000/svg">
<path d="M29.7852 25C29.7852 27.6428 27.6428 29.7852 25 29.7852C22.3572 29.7852 20.2148 27.6428 20.2148 25C20.2148 22.3572 22.3572 20.2148 25 20.2148C27.6428 20.2148 29.7852 22.3572 29.7852 25Z" fill="#FA683B"/>
<path d="M36.1912 16.5338C35.9611 15.9105 35.5942 15.3463 35.1173 14.8832C34.6542 14.4064 34.0904 14.0394 33.4667 13.8094C32.9609 13.6129 32.201 13.3791 30.8014 13.3154C29.2873 13.2463 28.8334 13.2314 25.0004 13.2314C21.167 13.2314 20.713 13.2459 19.1994 13.315C17.7997 13.3791 17.0395 13.6129 16.534 13.8094C15.9103 14.0394 15.3461 14.4064 14.8834 14.8832C14.4066 15.3463 14.0396 15.9101 13.8092 16.5338C13.6127 17.0397 13.3789 17.7999 13.3152 19.1995C13.2461 20.7132 13.2313 21.1672 13.2313 25.0006C13.2313 28.8336 13.2461 29.2875 13.3152 30.8016C13.3789 32.2012 13.6127 32.9611 13.8092 33.4669C14.0396 34.0906 14.4062 34.6544 14.883 35.1175C15.3461 35.5943 15.9099 35.9613 16.5336 36.1913C17.0395 36.3882 17.7997 36.622 19.1994 36.6857C20.713 36.7548 21.1666 36.7693 25 36.7693C28.8338 36.7693 29.2877 36.7548 30.801 36.6857C32.2006 36.622 32.9609 36.3882 33.4667 36.1913C34.7187 35.7084 35.7082 34.7189 36.1912 33.4669C36.3876 32.9611 36.6215 32.2012 36.6855 30.8016C36.7546 29.2875 36.7691 28.8336 36.7691 25.0006C36.7691 21.1672 36.7546 20.7132 36.6855 19.1995C36.6218 17.7999 36.388 17.0397 36.1912 16.5338ZM25.0004 32.3717C20.9289 32.3717 17.6285 29.0716 17.6285 25.0002C17.6285 20.9287 20.9289 17.6286 25.0004 17.6286C29.0714 17.6286 32.3719 20.9287 32.3719 25.0002C32.3719 29.0716 29.0714 32.3717 25.0004 32.3717ZM32.6633 19.0599C31.7119 19.0599 30.9406 18.2886 30.9406 17.3372C30.9406 16.3858 31.7119 15.6145 32.6633 15.6145C33.6147 15.6145 34.386 16.3858 34.386 17.3372C34.3857 18.2886 33.6147 19.0599 32.6633 19.0599Z" fill="#FA683B"/>
<path d="M25 0C11.195 0 0 11.195 0 25C0 38.805 11.195 50 25 50C38.805 50 50 38.805 50 25C50 11.195 38.805 0 25 0ZM39.2689 30.9185C39.1994 32.4467 38.9565 33.49 38.6017 34.4032C37.8559 36.3316 36.3316 37.8559 34.4032 38.6017C33.4904 38.9565 32.4467 39.1991 30.9189 39.2689C29.388 39.3387 28.899 39.3555 25.0004 39.3555C21.1014 39.3555 20.6127 39.3387 19.0815 39.2689C17.5537 39.1991 16.51 38.9565 15.5972 38.6017C14.6389 38.2412 13.7714 37.6762 13.0543 36.9457C12.3241 36.2289 11.7592 35.3611 11.3987 34.4032C11.0439 33.4904 10.8009 32.4467 10.7315 30.9189C10.6609 29.3877 10.6445 28.8986 10.6445 25C10.6445 21.1014 10.6609 20.6123 10.7311 19.0815C10.8006 17.5533 11.0432 16.51 11.3979 15.5968C11.7584 14.6389 12.3238 13.7711 13.0543 13.0543C13.7711 12.3238 14.6389 11.7588 15.5968 11.3983C16.51 11.0435 17.5533 10.8009 19.0815 10.7311C20.6123 10.6613 21.1014 10.6445 25 10.6445C28.8986 10.6445 29.3877 10.6613 30.9185 10.7315C32.4467 10.8009 33.49 11.0435 34.4032 11.3979C35.3611 11.7584 36.2289 12.3238 36.9461 13.0543C37.6762 13.7714 38.2416 14.6389 38.6017 15.5968C38.9568 16.51 39.1994 17.5533 39.2693 19.0815C39.3391 20.6123 39.3555 21.1014 39.3555 25C39.3555 28.8986 39.3391 29.3877 39.2689 30.9185Z" fill="#FA683B"/>
</svg>
