<svg width="32" height="32" viewBox="0 0 32 32" fill="none" xmlns="http://www.w3.org/2000/svg">
<path d="M19.0625 16C19.0625 17.6914 17.6914 19.0625 16 19.0625C14.3086 19.0625 12.9375 17.6914 12.9375 16C12.9375 14.3086 14.3086 12.9375 16 12.9375C17.6914 12.9375 19.0625 14.3086 19.0625 16Z" fill="#FA683B"/>
<path d="M23.1624 10.5818C23.0151 10.1829 22.7803 9.82178 22.4751 9.52539C22.1787 9.22021 21.8179 8.98535 21.4187 8.83813C21.095 8.7124 20.6086 8.56274 19.7129 8.52197C18.7439 8.47778 18.4534 8.46826 16.0002 8.46826C13.5469 8.46826 13.2563 8.47754 12.2876 8.52173C11.3918 8.56274 10.9053 8.7124 10.5818 8.83813C10.1826 8.98535 9.82153 9.22021 9.52539 9.52539C9.22021 9.82178 8.98535 10.1826 8.83789 10.5818C8.71216 10.9055 8.5625 11.3921 8.52173 12.2878C8.47754 13.2566 8.46802 13.5471 8.46802 16.0005C8.46802 18.4536 8.47754 18.7441 8.52173 19.7131C8.5625 20.6089 8.71216 21.0952 8.83789 21.4189C8.98535 21.8181 9.21997 22.179 9.52515 22.4753C9.82153 22.7805 10.1824 23.0154 10.5815 23.1626C10.9053 23.2886 11.3918 23.4382 12.2876 23.479C13.2563 23.5232 13.5466 23.5325 16 23.5325C18.4536 23.5325 18.7441 23.5232 19.7126 23.479C20.6084 23.4382 21.095 23.2886 21.4187 23.1626C22.22 22.8535 22.8533 22.2202 23.1624 21.4189C23.2881 21.0952 23.4377 20.6089 23.4788 19.7131C23.5229 18.7441 23.5322 18.4536 23.5322 16.0005C23.5322 13.5471 23.5229 13.2566 23.4788 12.2878C23.438 11.3921 23.2883 10.9055 23.1624 10.5818ZM16.0002 20.718C13.3945 20.718 11.2822 18.606 11.2822 16.0002C11.2822 13.3945 13.3945 11.2825 16.0002 11.2825C18.6057 11.2825 20.718 13.3945 20.718 16.0002C20.718 18.606 18.6057 20.718 16.0002 20.718ZM20.9045 12.1985C20.2957 12.1985 19.802 11.7048 19.802 11.0959C19.802 10.4871 20.2957 9.99341 20.9045 9.99341C21.5134 9.99341 22.0071 10.4871 22.0071 11.0959C22.0068 11.7048 21.5134 12.1985 20.9045 12.1985Z" fill="#FA683B"/>
<path d="M16 0C7.16479 0 0 7.16479 0 16C0 24.8352 7.16479 32 16 32C24.8352 32 32 24.8352 32 16C32 7.16479 24.8352 0 16 0ZM25.1321 19.7878C25.0876 20.7659 24.9321 21.4336 24.7051 22.0181C24.2278 23.2522 23.2522 24.2278 22.0181 24.7051C21.4338 24.9321 20.7659 25.0874 19.7881 25.1321C18.8083 25.1768 18.4954 25.1875 16.0002 25.1875C13.5049 25.1875 13.1921 25.1768 12.2122 25.1321C11.2344 25.0874 10.5664 24.9321 9.98218 24.7051C9.3689 24.4744 8.81372 24.1128 8.35474 23.6453C7.88745 23.1865 7.52588 22.6311 7.29517 22.0181C7.06812 21.4338 6.9126 20.7659 6.86816 19.7881C6.823 18.8081 6.8125 18.4951 6.8125 16C6.8125 13.5049 6.823 13.1919 6.86792 12.2122C6.91235 11.2341 7.06763 10.5664 7.29468 9.98193C7.52539 9.3689 7.88721 8.81348 8.35474 8.35474C8.81348 7.88721 9.3689 7.52563 9.98193 7.29492C10.5664 7.06787 11.2341 6.9126 12.2122 6.86792C13.1919 6.82324 13.5049 6.8125 16 6.8125C18.4951 6.8125 18.8081 6.82324 19.7878 6.86816C20.7659 6.9126 21.4336 7.06787 22.0181 7.29468C22.6311 7.52539 23.1865 7.88721 23.6455 8.35474C24.1128 8.81372 24.4746 9.3689 24.7051 9.98193C24.9324 10.5664 25.0876 11.2341 25.1323 12.2122C25.177 13.1919 25.1875 13.5049 25.1875 16C25.1875 18.4951 25.177 18.8081 25.1321 19.7878Z" fill="#FA683B"/>
</svg>
