<svg width="62" height="62" viewBox="0 0 62 62" fill="none" xmlns="http://www.w3.org/2000/svg">
<g filter="url(#filter0_f)">
<path d="M34.0625 31C34.0625 32.6914 32.6914 34.0625 31 34.0625C29.3086 34.0625 27.9375 32.6914 27.9375 31C27.9375 29.3086 29.3086 27.9375 31 27.9375C32.6914 27.9375 34.0625 29.3086 34.0625 31Z" fill="#FA683B"/>
<path d="M38.1621 25.5815C38.0149 25.1826 37.78 24.8215 37.4749 24.5251C37.1785 24.22 36.8176 23.9851 36.4185 23.8379C36.0947 23.7122 35.6084 23.5625 34.7126 23.5217C33.7437 23.4775 33.4531 23.468 31 23.468C28.5466 23.468 28.2561 23.4773 27.2874 23.5215C26.3916 23.5625 25.905 23.7122 25.5815 23.8379C25.1824 23.9851 24.8213 24.22 24.5251 24.5251C24.22 24.8215 23.9851 25.1824 23.8376 25.5815C23.7119 25.9053 23.5623 26.3918 23.5215 27.2876C23.4773 28.2563 23.4678 28.5469 23.4678 31.0002C23.4678 33.4534 23.4773 33.7439 23.5215 34.7129C23.5623 35.6086 23.7119 36.095 23.8376 36.4187C23.9851 36.8179 24.2197 37.1787 24.5249 37.4751C24.8213 37.7803 25.1821 38.0151 25.5813 38.1624C25.905 38.2883 26.3916 38.438 27.2874 38.4788C28.2561 38.523 28.5464 38.5322 30.9998 38.5322C33.4534 38.5322 33.7439 38.523 34.7124 38.4788C35.6082 38.438 36.0947 38.2883 36.4185 38.1624C37.2197 37.8533 37.853 37.22 38.1621 36.4187C38.2878 36.095 38.4375 35.6086 38.4785 34.7129C38.5227 33.7439 38.532 33.4534 38.532 31.0002C38.532 28.5469 38.5227 28.2563 38.4785 27.2876C38.4377 26.3918 38.2881 25.9053 38.1621 25.5815ZM31 35.7178C28.3943 35.7178 26.282 33.6057 26.282 31C26.282 28.3943 28.3943 26.2822 31 26.2822C33.6055 26.2822 35.7178 28.3943 35.7178 31C35.7178 33.6057 33.6055 35.7178 31 35.7178ZM35.9043 27.1982C35.2954 27.1982 34.8018 26.7046 34.8018 26.0957C34.8018 25.4868 35.2954 24.9932 35.9043 24.9932C36.5132 24.9932 37.0068 25.4868 37.0068 26.0957C37.0066 26.7046 36.5132 27.1982 35.9043 27.1982Z" fill="#FA683B"/>
<path d="M31 15C22.1648 15 15 22.1648 15 31C15 39.8352 22.1648 47 31 47C39.8352 47 47 39.8352 47 31C47 22.1648 39.8352 15 31 15ZM40.1321 34.7878C40.0876 35.7659 39.9321 36.4336 39.7051 37.0181C39.2278 38.2522 38.2522 39.2278 37.0181 39.7051C36.4338 39.9321 35.7659 40.0874 34.7881 40.1321C33.8083 40.1768 33.4954 40.1875 31.0002 40.1875C28.5049 40.1875 28.1921 40.1768 27.2122 40.1321C26.2344 40.0874 25.5664 39.9321 24.9822 39.7051C24.3689 39.4744 23.8137 39.1128 23.3547 38.6453C22.8875 38.1865 22.5259 37.6311 22.2952 37.0181C22.0681 36.4338 21.9126 35.7659 21.8682 34.7881C21.823 33.8081 21.8125 33.4951 21.8125 31C21.8125 28.5049 21.823 28.1919 21.8679 27.2122C21.9124 26.2341 22.0676 25.5664 22.2947 24.9819C22.5254 24.3689 22.8872 23.8135 23.3547 23.3547C23.8135 22.8872 24.3689 22.5256 24.9819 22.2949C25.5664 22.0679 26.2341 21.9126 27.2122 21.8679C28.1919 21.8232 28.5049 21.8125 31 21.8125C33.4951 21.8125 33.8081 21.8232 34.7878 21.8682C35.7659 21.9126 36.4336 22.0679 37.0181 22.2947C37.6311 22.5254 38.1865 22.8872 38.6455 23.3547C39.1128 23.8137 39.4746 24.3689 39.7051 24.9819C39.9324 25.5664 40.0876 26.2341 40.1323 27.2122C40.177 28.1919 40.1875 28.5049 40.1875 31C40.1875 33.4951 40.177 33.8081 40.1321 34.7878Z" fill="#FA683B"/>
</g>
<path d="M34.0625 31C34.0625 32.6914 32.6914 34.0625 31 34.0625C29.3086 34.0625 27.9375 32.6914 27.9375 31C27.9375 29.3086 29.3086 27.9375 31 27.9375C32.6914 27.9375 34.0625 29.3086 34.0625 31Z" fill="#FA683B"/>
<path d="M38.1621 25.5815C38.0149 25.1826 37.78 24.8215 37.4749 24.5251C37.1785 24.22 36.8176 23.9851 36.4185 23.8379C36.0947 23.7122 35.6084 23.5625 34.7126 23.5217C33.7437 23.4775 33.4531 23.468 31 23.468C28.5466 23.468 28.2561 23.4773 27.2874 23.5215C26.3916 23.5625 25.905 23.7122 25.5815 23.8379C25.1824 23.9851 24.8213 24.22 24.5251 24.5251C24.22 24.8215 23.9851 25.1824 23.8376 25.5815C23.7119 25.9053 23.5623 26.3918 23.5215 27.2876C23.4773 28.2563 23.4678 28.5469 23.4678 31.0002C23.4678 33.4534 23.4773 33.7439 23.5215 34.7129C23.5623 35.6086 23.7119 36.095 23.8376 36.4187C23.9851 36.8179 24.2197 37.1787 24.5249 37.4751C24.8213 37.7803 25.1821 38.0151 25.5813 38.1624C25.905 38.2883 26.3916 38.438 27.2874 38.4788C28.2561 38.523 28.5464 38.5322 30.9998 38.5322C33.4534 38.5322 33.7439 38.523 34.7124 38.4788C35.6082 38.438 36.0947 38.2883 36.4185 38.1624C37.2197 37.8533 37.853 37.22 38.1621 36.4187C38.2878 36.095 38.4375 35.6086 38.4785 34.7129C38.5227 33.7439 38.532 33.4534 38.532 31.0002C38.532 28.5469 38.5227 28.2563 38.4785 27.2876C38.4377 26.3918 38.2881 25.9053 38.1621 25.5815ZM31 35.7178C28.3943 35.7178 26.282 33.6057 26.282 31C26.282 28.3943 28.3943 26.2822 31 26.2822C33.6055 26.2822 35.7178 28.3943 35.7178 31C35.7178 33.6057 33.6055 35.7178 31 35.7178ZM35.9043 27.1982C35.2954 27.1982 34.8018 26.7046 34.8018 26.0957C34.8018 25.4868 35.2954 24.9932 35.9043 24.9932C36.5132 24.9932 37.0068 25.4868 37.0068 26.0957C37.0066 26.7046 36.5132 27.1982 35.9043 27.1982Z" fill="#FA683B"/>
<path d="M31 15C22.1648 15 15 22.1648 15 31C15 39.8352 22.1648 47 31 47C39.8352 47 47 39.8352 47 31C47 22.1648 39.8352 15 31 15ZM40.1321 34.7878C40.0876 35.7659 39.9321 36.4336 39.7051 37.0181C39.2278 38.2522 38.2522 39.2278 37.0181 39.7051C36.4338 39.9321 35.7659 40.0874 34.7881 40.1321C33.8083 40.1768 33.4954 40.1875 31.0002 40.1875C28.5049 40.1875 28.1921 40.1768 27.2122 40.1321C26.2344 40.0874 25.5664 39.9321 24.9822 39.7051C24.3689 39.4744 23.8137 39.1128 23.3547 38.6453C22.8875 38.1865 22.5259 37.6311 22.2952 37.0181C22.0681 36.4338 21.9126 35.7659 21.8682 34.7881C21.823 33.8081 21.8125 33.4951 21.8125 31C21.8125 28.5049 21.823 28.1919 21.8679 27.2122C21.9124 26.2341 22.0676 25.5664 22.2947 24.9819C22.5254 24.3689 22.8872 23.8135 23.3547 23.3547C23.8135 22.8872 24.3689 22.5256 24.9819 22.2949C25.5664 22.0679 26.2341 21.9126 27.2122 21.8679C28.1919 21.8232 28.5049 21.8125 31 21.8125C33.4951 21.8125 33.8081 21.8232 34.7878 21.8682C35.7659 21.9126 36.4336 22.0679 37.0181 22.2947C37.6311 22.5254 38.1865 22.8872 38.6455 23.3547C39.1128 23.8137 39.4746 24.3689 39.7051 24.9819C39.9324 25.5664 40.0876 26.2341 40.1323 27.2122C40.177 28.1919 40.1875 28.5049 40.1875 31C40.1875 33.4951 40.177 33.8081 40.1321 34.7878Z" fill="#FA683B"/>
<defs>
<filter id="filter0_f" x="0" y="0" width="62" height="62" filterUnits="userSpaceOnUse" color-interpolation-filters="sRGB">
<feFlood flood-opacity="0" result="BackgroundImageFix"/>
<feBlend mode="normal" in="SourceGraphic" in2="BackgroundImageFix" result="shape"/>
<feGaussianBlur stdDeviation="7.5" result="effect1_foregroundBlur"/>
</filter>
</defs>
</svg>
