<svg width="48" height="50" viewBox="0 0 48 50" fill="none" xmlns="http://www.w3.org/2000/svg">
<g filter="url(#filter0_f)">
<path d="M20 30.5C19.7239 30.5 19.5 30.2761 19.5 30V20C19.5 19.7239 19.7239 19.5 20 19.5C20.2761 19.5 20.5 19.7239 20.5 20V30C20.5 30.2761 20.2761 30.5 20 30.5ZM24 34.5C23.7239 34.5 23.5 34.2761 23.5 34V16C23.5 15.7239 23.7239 15.5 24 15.5C24.2761 15.5 24.5 15.7239 24.5 16V34C24.5 34.2761 24.2761 34.5 24 34.5ZM16 26.5C15.7239 26.5 15.5 26.2761 15.5 26V24C15.5 23.7239 15.7239 23.5 16 23.5C16.2761 23.5 16.5 23.7239 16.5 24V26C16.5 26.2761 16.2761 26.5 16 26.5ZM28 30.5C27.7239 30.5 27.5 30.2761 27.5 30V20C27.5 19.7239 27.7239 19.5 28 19.5C28.2761 19.5 28.5 19.7239 28.5 20V30C28.5 30.2761 28.2761 30.5 28 30.5ZM31.5 24C31.5 23.7239 31.7239 23.5 32 23.5C32.2761 23.5 32.5 23.7239 32.5 24V26C32.5 26.2761 32.2761 26.5 32 26.5C31.7239 26.5 31.5 26.2761 31.5 26V24Z" stroke="#FA683B"/>
</g>
<path d="M20 30.5C19.7239 30.5 19.5 30.2761 19.5 30V20C19.5 19.7239 19.7239 19.5 20 19.5C20.2761 19.5 20.5 19.7239 20.5 20V30C20.5 30.2761 20.2761 30.5 20 30.5ZM24 34.5C23.7239 34.5 23.5 34.2761 23.5 34V16C23.5 15.7239 23.7239 15.5 24 15.5C24.2761 15.5 24.5 15.7239 24.5 16V34C24.5 34.2761 24.2761 34.5 24 34.5ZM16 26.5C15.7239 26.5 15.5 26.2761 15.5 26V24C15.5 23.7239 15.7239 23.5 16 23.5C16.2761 23.5 16.5 23.7239 16.5 24V26C16.5 26.2761 16.2761 26.5 16 26.5ZM28 30.5C27.7239 30.5 27.5 30.2761 27.5 30V20C27.5 19.7239 27.7239 19.5 28 19.5C28.2761 19.5 28.5 19.7239 28.5 20V30C28.5 30.2761 28.2761 30.5 28 30.5ZM31.5 24C31.5 23.7239 31.7239 23.5 32 23.5C32.2761 23.5 32.5 23.7239 32.5 24V26C32.5 26.2761 32.2761 26.5 32 26.5C31.7239 26.5 31.5 26.2761 31.5 26V24Z" stroke="#FA683B"/>
<defs>
<filter id="filter0_f" x="-3" y="-2" width="54" height="54" filterUnits="userSpaceOnUse" color-interpolation-filters="sRGB">
<feFlood flood-opacity="0" result="BackgroundImageFix"/>
<feBlend mode="normal" in="SourceGraphic" in2="BackgroundImageFix" result="shape"/>
<feGaussianBlur stdDeviation="7.5" result="effect1_foregroundBlur"/>
</filter>
</defs>
</svg>
